<svg xmlns="http://www.w3.org/2000/svg" xmlns:xlink="http://www.w3.org/1999/xlink" width="56" height="56" viewBox="0 0 56 56" version="1.1">
  <title>A circular badge saying 'Verified License' with a tick-marked shield inside</title>
  <g fill="none" fill-rule="evenodd">
    <path fill="#0AB3C9" fill-rule="nonzero" d="M28,0 C43.5,0 56,12.5 56,28 C56,43.5 43.5,56 28,56 C12.5,56 0,43.5 0,28 C0,12.5 12.5,0 28,0 Z M41,8 C40.8,8 40.7,8.1 40.8,8.1 L38.7,10.8 C38.6,11 38.6,11.1 38.6,11.3 C38.6,11.5 38.7,11.6 38.8,11.7 L39.7,12.4 C40.1,12.8 40.6,13 41.2,13 L41.4,13 C42,12.9 42.6,12.6 43,12.1 C43.3,11.6 43.5,10.9 43.4,10.3 C43.3,9.7 42.9,9.1 42.4,8.8 L41.5,8.1 C41.3,8 41.2,8 41,8 Z M34.6,9 C34.5,9.1 34.5,9.3 34.6,9.5 C34.6,9.6 34.8,9.7 34.9,9.8 L37.1,10.8 C37.1,10.9 37.2,10.9 37.3,10.9 L37.5,10.9 L37.8,10.6 C37.9,10.3 37.8,9.9 37.5,9.8 L35.9,9 L36.1,8.5 L37.5,9.1 C37.8,9.2 38.2,9.1 38.3,8.8 C38.4,8.5 38.3,8.1 38,8 L36.8,7.5 L37,7 L38.6,7.7 C38.7,7.7 38.9,7.8 39,7.7 L39.3,7.4 C39.4,7.1 39.3,6.7 39,6.6 L36.8,5.6 C36.6,5.6 36.5,5.5 36.3,5.6 C36.2,5.6 36.1,5.8 36,5.9 L34.6,9 Z M32.4,8.4 C32.3,8.7 32.5,9.1 32.8,9.2 L33,9.2 C33.2,9.2 33.5,9 33.5,8.7 L34.4,5.4 C34.5,5.1 34.3,4.8 34,4.7 C33.7,4.6 33.4,4.8 33.3,5.1 L32.4,8.4 Z M28.4,4.4 L28.1,7.7 C28,8.1 28.3,8.4 28.6,8.4 L28.7,8.4 C29,8.4 29.3,8.2 29.3,7.9 L29.4,6.8 L30.9,7 C31.1,7 31.2,6.9 31.3,6.8 C31.4,6.7 31.5,6.6 31.5,6.4 C31.5,6.3 31.5,6.1 31.4,6 C31.3,5.9 31.2,5.8 31,5.8 L29.5,5.6 L29.6,5 L31.4,5.2 C31.6,5.3 31.8,5.2 31.9,5 C32,4.8 32,4.6 32,4.4 C31.9,4.2 31.7,4.1 31.5,4.1 L29.1,3.9 C28.9,3.9 28.7,3.9 28.6,4 C28.5,4.1 28.4,4.2 28.4,4.4 Z M25.7,4 C25.6,4.2 25.6,4.3 25.6,4.5 L25.8,7.9 C25.8,8 25.9,8.2 26,8.3 C26.1,8.3 26.3,8.4 26.4,8.4 C26.5,8.4 26.7,8.3 26.8,8.2 C27,8.1 27,8 27,7.8 L26.7,4.4 C26.7,4.3 26.6,4.2 26.5,4 C26.4,3.8 26.3,3.8 26.1,3.8 C26,3.8 25.8,3.9 25.7,4 Z M20.4,5 C20.4,5.1 20.3,5.3 20.4,5.6 L21.2,8.9 C21.3,9.2 21.5,9.4 21.8,9.4 L21.9,9.4 C22.3,9.4 22.5,9 22.4,8.7 L22.2,7.9 L22.7,7.8 L23.8,8.7 C24,8.9 24.2,9 24.4,8.9 C24.6,8.8 24.7,8.7 24.8,8.6 C24.9,8.4 24.9,8.3 24.9,8.1 C24.8,7.9 24.7,7.8 24.6,7.7 L23.9,7.1 C24.3,6.7 24.4,6.1 24.3,5.6 C24.2,5.2 24,4.8 23.6,4.6 C23.2,4.3 22.7,4.3 22.2,4.4 L20.8,4.7 C20.6,4.8 20.5,4.9 20.4,5 Z M15.7,7.1 C15.6,7.2 15.6,7.4 15.5,7.6 L17,10.6 C17.1,10.7 17.2,10.8 17.4,10.9 L17.6,10.9 C17.7,10.9 17.8,10.8 17.9,10.8 L20.1,9.8 C20.2,9.8 20.3,9.6 20.4,9.5 C20.5,9.4 20.5,9.2 20.4,9.1 C20.2,8.8 19.9,8.7 19.6,8.8 L18,9.6 L17.8,9 L19.2,8.4 C19.5,8.2 19.6,7.9 19.5,7.6 C19.3,7.3 19,7.2 18.7,7.3 L17.3,8 L17,7.5 L18.6,6.7 C18.7,6.7 18.9,6.5 18.9,6.4 C19,6.3 19,6.1 18.9,6 C18.7,5.7 18.4,5.6 18.1,5.7 L16,6.7 C15.9,6.8 15.8,6.9 15.7,7.1 Z M11,10.9 C11.1,11 11.2,11.1 11.3,11 L14.5,12.7 C14.6,12.8 14.8,12.8 14.9,12.8 C15,12.8 15.2,12.8 15.3,12.7 C15.5,12.5 15.6,12.2 15.5,11.9 L14.5,8.4 C14.5,8.4 14.5,8.3 14.4,8.2 C14.3,8.1 14.2,8 14,8 C13.8,8 13.7,8 13.5,8.1 C13.3,8.3 13.2,8.6 13.3,8.8 L14,11.3 L11.8,10 C11.6,9.8 11.3,9.8 11.1,10 C11,10.1 10.9,10.2 10.9,10.4 C10.9,10.6 10.9,10.8 11,10.9 Z M15.7,44.7 C15.9,44.4 15.8,44.1 15.5,43.8 C15.3,43.7 14.9,43.7 14.7,44 L12.8,46.8 C12.7,47 12.7,47.1 12.7,47.3 C12.8,47.5 12.9,47.6 13,47.7 L14.8,48.9 C14.9,49 15,49 15.1,49 C15.3,49 15.5,49 15.6,48.8 C15.7,48.5 15.7,48.2 15.4,48 L14.1,47.1 L15.7,44.7 Z M19.3,46.7 C19.4,46.4 19.3,46 18.9,45.8 C18.6,45.7 18.2,45.8 18.1,46.1 L16.6,49.2 C16.5,49.5 16.6,49.9 16.9,50 C17,50.1 17.1,50.1 17.2,50.1 C17.5,50.1 17.7,50 17.8,49.8 L19.3,46.7 Z M23.9,48.5 C23.9,48.3 23.9,48.2 23.8,48.1 C23.4,47.7 22.9,47.3 22.4,47.2 C21.8,47 21.1,47.1 20.6,47.4 C20.1,47.7 19.7,48.2 19.5,48.8 C19.3,49.4 19.4,50.1 19.7,50.6 C20,51.1 20.5,51.5 21.1,51.7 C21.3,51.8 21.6,51.8 21.8,51.8 C22.2,51.8 22.6,51.7 22.9,51.5 C23,51.4 23.2,51.3 23.2,51.1 C23.3,50.8 23.1,50.5 22.8,50.4 C22.7,50.3 22.5,50.3 22.4,50.4 C22.1,50.6 21.8,50.6 21.5,50.5 C21.2,50.4 20.9,50.2 20.8,49.9 C20.6,49.6 20.6,49.3 20.7,49 C20.8,48.7 20.9,48.5 21.2,48.3 C21.5,48.2 21.8,48.1 22.1,48.2 C22.4,48.3 22.6,48.4 22.8,48.7 C22.9,48.9 23.2,48.9 23.4,48.9 C23.7,48.9 23.8,48.7 23.9,48.5 Z M27.3,49.5 L25.8,49.5 L25.8,48.9 L27.6,49 C27.8,49 27.9,49 27.9,48.8 C28,48.7 28.1,48.6 28.1,48.4 C28.2,48.1 27.9,47.8 27.6,47.8 L25.2,47.7 C25.1,47.7 24.9,47.8 24.8,47.9 C24.7,48 24.6,48.1 24.6,48.3 L24.4,51.7 C24.4,51.8 24.5,52 24.6,52.1 C24.7,52.2 24.8,52.3 25,52.3 L27.4,52.3 C27.6,52.3 27.7,52.3 27.8,52.2 C27.9,52.1 28,52 28,51.8 C28.1,51.5 27.8,51.2 27.5,51.2 L25.7,51.1 L25.7,50.5 L27.2,50.6 C27.5,50.7 27.8,50.4 27.8,50.1 C27.9,49.8 27.6,49.5 27.3,49.5 Z M33.3,51.6 C33.4,51.5 33.5,51.4 33.4,51.2 L32.9,47.8 C32.8,47.5 32.5,47.3 32.2,47.3 C31.9,47.4 31.7,47.7 31.7,48 L32,49.7 L30.1,47.9 C30,47.8 29.7,47.7 29.5,47.7 L29.4,47.7 C29.2,47.7 29.1,47.8 29,47.9 C28.9,48.1 28.9,48.2 28.9,48.4 L29.4,51.8 C29.5,52.1 29.7,52.3 30,52.3 L30.1,52.3 C30.4,52.2 30.6,51.9 30.6,51.6 L30.3,49.8 L32.3,51.6 C32.4,51.7 32.7,51.8 32.9,51.8 C33.1,51.8 33.2,51.7 33.3,51.6 Z M37.8,50 C38,49.6 38,49.1 38,48.9 C37.7,48 36.9,48 36.1,48.1 C35.3,48.2 35.2,48.1 35.2,48 C35.2,47.8 35.3,47.7 35.5,47.6 C35.8,47.5 36.1,47.5 36.4,47.6 C36.5,47.7 36.6,47.6 36.7,47.6 C36.8,47.6 36.9,47.4 37,47.3 C37.1,47.2 37.1,47 37,46.9 C37,46.7 36.8,46.5 36.6,46.5 C36.1,46.4 35.5,46.4 35.1,46.6 C34.7,46.7 34.4,46.9 34.2,47.3 C34,47.6 34,48.1 34.1,48.5 C34.5,49.4 35.3,49.4 36.1,49.3 C36.8,49.2 36.9,49.3 36.9,49.4 C37,49.6 36.8,49.7 36.6,49.8 C36.2,49.9 35.9,49.9 35.5,49.8 C35.3,49.7 35.2,49.8 35.1,49.8 C34.8,49.9 34.7,50.1 34.7,50.4 C34.7,50.6 34.9,50.8 35.1,50.9 C35.3,51 35.5,51 35.8,51 C36.1,51 36.5,50.9 36.8,50.8 C37.2,50.6 37.6,50.4 37.8,50 Z M42.5,47.3 C42.5,47.2 42.5,47 42.4,47 C42.2,46.7 41.9,46.6 41.6,46.8 L40.1,47.8 L39.8,47.3 L41.1,46.5 C41.4,46.3 41.5,46 41.3,45.7 C41.1,45.4 40.8,45.3 40.5,45.5 L39.2,46.3 L38.9,45.8 L40.4,44.8 C40.5,44.7 40.6,44.5 40.6,44.4 C40.6,44.3 40.6,44.1 40.5,44 C40.3,43.7 40,43.6 39.7,43.8 L37.7,45.1 C37.5,45.2 37.4,45.3 37.4,45.5 C37.4,45.7 37.4,45.9 37.5,46 L39.4,48.8 C39.5,49 39.6,49.1 39.8,49.1 L39.9,49.1 C40,49.1 40.1,49.1 40.2,49 L42.2,47.7 C42.4,47.6 42.5,47.5 42.5,47.3 Z M28,44 C36.8,44 44,36.8 44,28 C44,19.2 36.8,12 28,12 C19.2,12 12,19.2 12,28 C12,36.8 19.2,44 28,44 Z M28,19 C31.5,19 34.9,19.9 38,21.5 L38,26.4 C38,30.9 35.5,35 31.5,37.1 L28.5,38.7 C28.2,38.9 27.9,38.9 27.6,38.7 L24.6,37.1 C20.5,35 18,30.9 18,26.4 L18,21.5 C21.1,19.9 24.5,19 28,19 Z M25.7,28.3 C25.3,27.9 24.7,27.9 24.3,28.3 C23.9,28.7 23.9,29.3 24.3,29.7 L27,32.4 L32.7,26.7 C33.1,26.3 33.1,25.7 32.7,25.3 C32.3,24.9 31.7,24.9 31.3,25.3 L27,29.6 L25.7,28.3 Z M22.7,6.4 L21.9,6.7 L21.7,5.8 L22.5,5.6 C23.1,5.5 23.2,5.8 23.2,5.9 C23.2,6 23.2,6.1 23.1,6.2 C23,6.3 22.9,6.4 22.7,6.4 Z M41.1,11.8 C40.8,11.8 40.5,11.7 40.1,11.5 L39.7,11.2 L41.1,9.4 L41.6,9.8 C41.9,10 42.1,10.3 42.1,10.6 C42.2,10.9 42.1,11.2 41.9,11.4 C41.7,11.6 41.4,11.8 41.1,11.8 Z"/>
    <path fill="#FFF" fill-rule="nonzero" d="M2,29.5 C1.44771525,29.5 1,29.0522847 1,28.5 C1,27.9477153 1.44771525,27.5 2,27.5 L10,27.5 C10.5522847,27.5 11,27.9477153 11,28.5 C11,29.0522847 10.5522847,29.5 10,29.5 L2,29.5 Z M46,29.5 C45.4477153,29.5 45,29.0522847 45,28.5 C45,27.9477153 45.4477153,27.5 46,27.5 L54,27.5 C54.5522847,27.5 55,27.9477153 55,28.5 C55,29.0522847 54.5522847,29.5 54,29.5 L46,29.5 Z" opacity=".2"/>
  </g>
</svg>
